<?xml version="1.0" encoding="UTF-8" standalone="no"?>
<!-- Created with Inkscape (http://www.inkscape.org/) -->

<svg
   xmlns:dc="http://purl.org/dc/elements/1.1/"
   xmlns:cc="http://creativecommons.org/ns#"
   xmlns:rdf="http://www.w3.org/1999/02/22-rdf-syntax-ns#"
   xmlns:svg="http://www.w3.org/2000/svg"
   xmlns="http://www.w3.org/2000/svg"
   xmlns:sodipodi="http://sodipodi.sourceforge.net/DTD/sodipodi-0.dtd"
   xmlns:inkscape="http://www.inkscape.org/namespaces/inkscape"
   width="11.569412mm"
   height="11.569412mm"
   viewBox="0 0 11.569412 11.569412"
   version="1.1"
   id="svg5626"
   inkscape:version="0.92.4 (unknown)"
   sodipodi:docname="WM.svg">
  <defs
     id="defs5620" />
  <sodipodi:namedview
     id="base"
     pagecolor="#ffffff"
     bordercolor="#666666"
     borderopacity="1.0"
     inkscape:pageopacity="0.0"
     inkscape:pageshadow="2"
     inkscape:zoom="2.9856127"
     inkscape:cx="40.140909"
     inkscape:cy="39.673719"
     inkscape:document-units="mm"
     inkscape:current-layer="g8988"
     showgrid="false"
     inkscape:window-width="1366"
     inkscape:window-height="725"
     inkscape:window-x="0"
     inkscape:window-y="0"
     inkscape:window-maximized="1" />
  <metadata
     id="metadata5623">
    <rdf:RDF>
      <cc:Work
         rdf:about="">
        <dc:format>image/svg+xml</dc:format>
        <dc:type
           rdf:resource="http://purl.org/dc/dcmitype/StillImage" />
        <dc:title />
      </cc:Work>
    </rdf:RDF>
  </metadata>
  <g
     inkscape:label="Layer 1"
     inkscape:groupmode="layer"
     id="layer1"
     transform="translate(324.29961,-108.51341)">
    <g
       id="g8988"
       transform="matrix(0.25,0,0,0.25,-306.08891,229.51251)">
      <circle
         inkscape:export-ydpi="140.50844"
         inkscape:export-xdpi="140.50844"
         inkscape:export-filename="/home/eud/wm-Ro.png"
         r="23.138824"
         cy="-460.85757"
         cx="-49.703976"
         id="path8941"
         style="opacity:1;fill:#ff6600;fill-opacity:1;fill-rule:nonzero;stroke:none;stroke-width:2.86599994;stroke-linecap:butt;stroke-linejoin:miter;stroke-miterlimit:4;stroke-dasharray:none;stroke-opacity:1;paint-order:fill markers stroke" />
      <path
         d="m 78.475766,-545.62355 v -3.62769 q 0,-0.69246 -0.31006,-1.02836 -0.30489,-0.34106 -0.96118,-0.34106 -0.863,0 -1.26607,0.48059 -0.39791,0.48059 -0.39791,1.58646 v 2.93006 h -0.93018 v -8.04086 h 0.93018 v 2.35645 q 0,0.46509 -0.0517,0.79582 h 0.062 q 0.25321,-0.41342 0.7183,-0.64596 0.46509,-0.23254 1.04903,-0.23254 1.03353,0 1.55546,0.49609 0.52194,0.49093 0.52194,1.57613 v 3.69487 z"
         style="font-style:normal;font-variant:normal;font-weight:normal;font-stretch:normal;font-size:medium;line-height:1.25;font-family:'Noto Sans';-inkscape-font-specification:'Noto Sans';letter-spacing:0px;word-spacing:0px;fill:#000000;fill-opacity:1;stroke:none;stroke-width:0.26458332"
         id="path8270"
         inkscape:connector-curvature="0" />
      <path
         d="m 83.576226,-545.5202 q -1.2764,0 -2.00504,-0.76998 -0.72347,-0.77515 -0.72347,-2.12907 0,-1.36426 0.67696,-2.17041 0.67696,-0.81132 1.82935,-0.81132 1.0697,0 1.70532,0.69247 0.63562,0.68729 0.63562,1.86551 v 0.56328 h -3.88607 q 0.0258,0.96635 0.49093,1.46761 0.46508,0.50126 1.31775,0.50126 0.45475,0 0.86299,-0.0775 0.40825,-0.0827 0.95602,-0.31523 v 0.81649 q -0.47026,0.20153 -0.88367,0.28422 -0.41341,0.0827 -0.97669,0.0827 z m -0.23254,-5.12114 q -0.66663,0 -1.0542,0.42892 -0.38757,0.42891 -0.45992,1.19372 h 2.88871 q -0.0103,-0.79581 -0.3669,-1.20922 -0.35657,-0.41342 -1.00769,-0.41342 z"
         style="font-style:normal;font-variant:normal;font-weight:normal;font-stretch:normal;font-size:medium;line-height:1.25;font-family:'Noto Sans';-inkscape-font-specification:'Noto Sans';letter-spacing:0px;word-spacing:0px;fill:#000000;fill-opacity:1;stroke:none;stroke-width:0.26458332"
         id="path8272"
         inkscape:connector-curvature="0" />
      <path
         d="m 91.002136,-545.62355 v -3.62769 q 0,-0.69246 -0.31006,-1.02836 -0.30489,-0.34106 -0.96118,-0.34106 -0.87333,0 -1.27124,0.48575 -0.39274,0.48059 -0.39274,1.57097 v 2.94039 h -0.93018 v -5.67408 h 0.74931 l 0.13953,0.77515 h 0.0517 q 0.26355,-0.41858 0.73897,-0.64595 0.47542,-0.23255 1.04903,-0.23255 1.04386,0 1.55029,0.50643 0.50643,0.50643 0.50643,1.57613 v 3.69487 z"
         style="font-style:normal;font-variant:normal;font-weight:normal;font-stretch:normal;font-size:medium;line-height:1.25;font-family:'Noto Sans';-inkscape-font-specification:'Noto Sans';letter-spacing:0px;word-spacing:0px;fill:#000000;fill-opacity:1;stroke:none;stroke-width:0.26458332"
         id="path8274"
         inkscape:connector-curvature="0" />
      <path
         d="m 95.963066,-545.5202 q -1.22473,0 -1.90686,-0.74931 -0.68212,-0.75447 -0.68212,-2.16007 0,-1.42627 0.68729,-2.19625 0.69247,-0.77515 1.96887,-0.77515 0.41342,0 0.81649,0.0879 0.40825,0.0827 0.6718,0.21704 l -0.28423,0.77515 q -0.7183,-0.26872 -1.22473,-0.26872 -0.85783,0 -1.26607,0.5426 -0.40824,0.53744 -0.40824,1.60714 0,1.02836 0.40824,1.57613 0.40824,0.5426 1.20923,0.5426 0.74931,0 1.47278,-0.33072 v 0.82682 q -0.58911,0.30489 -1.46245,0.30489 z"
         style="font-style:normal;font-variant:normal;font-weight:normal;font-stretch:normal;font-size:medium;line-height:1.25;font-family:'Noto Sans';-inkscape-font-specification:'Noto Sans';letter-spacing:0px;word-spacing:0px;fill:#000000;fill-opacity:1;stroke:none;stroke-width:0.26458332"
         id="path8276"
         inkscape:connector-curvature="0" />
      <path
         d="m 102.63967,-545.62355 v -3.62769 q 0,-0.69246 -0.31006,-1.02836 -0.30489,-0.34106 -0.96118,-0.34106 -0.863,0 -1.26607,0.48059 -0.397914,0.48059 -0.397914,1.58646 v 2.93006 h -0.93018 v -8.04086 h 0.93018 v 2.35645 q 0,0.46509 -0.0517,0.79582 h 0.062 q 0.25322,-0.41342 0.718314,-0.64596 0.46508,-0.23254 1.04903,-0.23254 1.03353,0 1.55546,0.49609 0.52193,0.49093 0.52193,1.57613 v 3.69487 z"
         style="font-style:normal;font-variant:normal;font-weight:normal;font-stretch:normal;font-size:medium;line-height:1.25;font-family:'Noto Sans';-inkscape-font-specification:'Noto Sans';letter-spacing:0px;word-spacing:0px;fill:#000000;fill-opacity:1;stroke:none;stroke-width:0.26458332"
         id="path8278"
         inkscape:connector-curvature="0" />
      <path
         d="m 112.54604,-545.62355 v -3.65353 q 0,-1.34358 -1.15238,-1.34358 -0.79065,0 -1.16272,0.45992 -0.37207,0.45992 -0.37207,1.40559 v 3.1316 h -0.92501 v -3.65353 q 0,-0.67179 -0.28422,-1.00769 -0.27905,-0.33589 -0.8785,-0.33589 -0.78548,0 -1.15238,0.48059 -0.36174,0.48059 -0.36174,1.57613 v 2.94039 h -0.93017 v -5.67408 h 0.7493 l 0.13953,0.77515 h 0.0517 q 0.24288,-0.41341 0.68213,-0.64595 0.44441,-0.23255 0.99218,-0.23255 1.33325,0 1.73633,0.95085 h 0.0517 q 0.27388,-0.45475 0.74414,-0.7028 0.47542,-0.24805 1.07487,-0.24805 0.96118,0 1.4366,0.4961 0.48059,0.49609 0.48059,1.58646 v 3.69487 z"
         style="font-style:normal;font-variant:normal;font-weight:normal;font-stretch:normal;font-size:medium;line-height:1.25;font-family:'Noto Sans';-inkscape-font-specification:'Noto Sans';letter-spacing:0px;word-spacing:0px;fill:#000000;fill-opacity:1;stroke:none;stroke-width:0.26458332"
         id="path8280"
         inkscape:connector-curvature="0" />
      <path
         d="m 117.64134,-545.5202 q -1.27641,0 -2.00505,-0.76998 -0.72347,-0.77515 -0.72347,-2.12907 0,-1.36426 0.67697,-2.17041 0.67696,-0.81132 1.82934,-0.81132 1.0697,0 1.70532,0.69247 0.63562,0.68729 0.63562,1.86551 v 0.56328 h -3.88606 q 0.0258,0.96635 0.49092,1.46761 0.46509,0.50126 1.31775,0.50126 0.45475,0 0.863,-0.0775 0.40824,-0.0827 0.95601,-0.31523 v 0.81649 q -0.47025,0.20153 -0.88367,0.28422 -0.41341,0.0827 -0.97668,0.0827 z m -0.23254,-5.12114 q -0.66663,0 -1.0542,0.42892 -0.38758,0.42891 -0.45992,1.19372 h 2.88871 q -0.0103,-0.79581 -0.3669,-1.20922 -0.35657,-0.41342 -1.00769,-0.41342 z"
         style="font-style:normal;font-variant:normal;font-weight:normal;font-stretch:normal;font-size:medium;line-height:1.25;font-family:'Noto Sans';-inkscape-font-specification:'Noto Sans';letter-spacing:0px;word-spacing:0px;fill:#000000;fill-opacity:1;stroke:none;stroke-width:0.26458332"
         id="path8282"
         inkscape:connector-curvature="0" />
      <path
         d="m 125.06724,-545.62355 v -3.62769 q 0,-0.69246 -0.31006,-1.02836 -0.30489,-0.34106 -0.96118,-0.34106 -0.87333,0 -1.27124,0.48575 -0.39274,0.48059 -0.39274,1.57097 v 2.94039 h -0.93018 v -5.67408 h 0.74931 l 0.13953,0.77515 h 0.0517 q 0.26355,-0.41858 0.73897,-0.64595 0.47542,-0.23255 1.04903,-0.23255 1.04387,0 1.55029,0.50643 0.50643,0.50643 0.50643,1.57613 v 3.69487 z"
         style="font-style:normal;font-variant:normal;font-weight:normal;font-stretch:normal;font-size:medium;line-height:1.25;font-family:'Noto Sans';-inkscape-font-specification:'Noto Sans';letter-spacing:0px;word-spacing:0px;fill:#000000;fill-opacity:1;stroke:none;stroke-width:0.26458332"
         id="path8284"
         inkscape:connector-curvature="0" />
      <path
         d="m 82.749446,-528.99919 -0.97152,-3.19361 q -0.13435,-0.39791 -0.39274,-1.50378 h -0.0413 q -0.21704,1.00769 -0.3824,1.51412 l -1.01803,3.18327 h -1.0542 l -1.55546,-5.67408 h 0.96118 q 0.53744,2.0929 0.81649,3.18327 0.28422,1.09038 0.3359,1.53996 h 0.0413 l 0.0724,-0.32039 q 0.1602,-0.73898 0.31006,-1.20406 l 1.00769,-3.19878 h 1.01286 l 0.97668,3.19878 q 0.0517,0.18086 0.10852,0.38757 0.062,0.20154 0.11369,0.40307 0.0517,0.19638 0.093,0.38758 0.0413,0.18603 0.062,0.33589 h 0.0465 q 0.0465,-0.39274 0.37724,-1.68465 l 0.79581,-3.02824 h 0.95085 l -1.57613,5.67408 z"
         style="font-style:normal;font-variant:normal;font-weight:normal;font-stretch:normal;font-size:medium;line-height:1.25;font-family:'Noto Sans';-inkscape-font-specification:'Noto Sans';letter-spacing:0px;word-spacing:0px;fill:#000000;fill-opacity:1;stroke:none;stroke-width:0.26458332"
         id="path8368"
         inkscape:connector-curvature="0" />
      <path
         d="m 91.374246,-531.84656 q 0,1.39009 -0.7028,2.17041 -0.7028,0.78031 -1.94304,0.78031 -0.76998,0 -1.36425,-0.35657 -0.59428,-0.36173 -0.91468,-1.03353 -0.32039,-0.67179 -0.32039,-1.56062 0,-1.38493 0.69246,-2.15491 0.69247,-0.77515 1.94304,-0.77515 1.19889,0 1.90169,0.79065 0.70797,0.78548 0.70797,2.13941 z m -4.28398,0 q 0,1.0697 0.41858,1.6278 0.42375,0.55294 1.2454,0.55294 0.81132,0 1.23507,-0.55294 0.42375,-0.5581 0.42375,-1.6278 0,-1.06971 -0.42892,-1.60714 -0.42375,-0.5426 -1.2454,-0.5426 -1.64848,0 -1.64848,2.14974 z"
         style="font-style:normal;font-variant:normal;font-weight:normal;font-stretch:normal;font-size:medium;line-height:1.25;font-family:'Noto Sans';-inkscape-font-specification:'Noto Sans';letter-spacing:0px;word-spacing:0px;fill:#000000;fill-opacity:1;stroke:none;stroke-width:0.26458332"
         id="path8370"
         inkscape:connector-curvature="0" />
      <path
         d="m 95.498026,-534.77662 q 0.37723,0 0.66662,0.062 l -0.11369,0.85783 q -0.31522,-0.0724 -0.61495,-0.0724 -0.44958,0 -0.83715,0.24805 -0.38241,0.24805 -0.59945,0.6873 -0.21704,0.43408 -0.21704,0.96635 v 3.02824 h -0.93018 v -5.67408 h 0.76481 l 0.10336,1.0387 h 0.0413 q 0.32556,-0.56327 0.76998,-0.85266 0.44441,-0.28939 0.96634,-0.28939 z"
         style="font-style:normal;font-variant:normal;font-weight:normal;font-stretch:normal;font-size:medium;line-height:1.25;font-family:'Noto Sans';-inkscape-font-specification:'Noto Sans';letter-spacing:0px;word-spacing:0px;fill:#000000;fill-opacity:1;stroke:none;stroke-width:0.26458332"
         id="path8372"
         inkscape:connector-curvature="0" />
      <path
         d="m 98.154186,-531.91891 0.31523,-0.40308 0.36174,-0.43408 1.813844,-1.9172 h 1.0852 l -2.294434,2.42363 2.454634,3.25045 h -1.12138 l -1.968874,-2.64584 -0.64596,0.56328 v 2.08256 h -0.91984 v -8.04086 h 0.91984 v 4.2013 l -0.0413,0.91984 z"
         style="font-style:normal;font-variant:normal;font-weight:normal;font-stretch:normal;font-size:medium;line-height:1.25;font-family:'Noto Sans';-inkscape-font-specification:'Noto Sans';letter-spacing:0px;word-spacing:0px;fill:#000000;fill-opacity:1;stroke:none;stroke-width:0.26458332"
         id="path8374"
         inkscape:connector-curvature="0" />
      <path
         d="m 110.11729,-528.99919 v -3.65353 q 0,-1.34358 -1.15239,-1.34358 -0.79065,0 -1.16272,0.45992 -0.37207,0.45992 -0.37207,1.40559 v 3.1316 h -0.925 v -3.65353 q 0,-0.67179 -0.28422,-1.00769 -0.27906,-0.33589 -0.8785,-0.33589 -0.78549,0 -1.15239,0.48059 -0.36173,0.48059 -0.36173,1.57613 v 2.94039 h -0.93018 v -5.67408 h 0.74931 l 0.13953,0.77515 h 0.0517 q 0.24288,-0.41341 0.68213,-0.64595 0.44442,-0.23255 0.99219,-0.23255 1.33325,0 1.73633,0.95085 h 0.0517 q 0.27389,-0.45475 0.74414,-0.7028 0.47543,-0.24805 1.07487,-0.24805 0.96118,0 1.43661,0.4961 0.48059,0.49609 0.48059,1.58646 v 3.69487 z"
         style="font-style:normal;font-variant:normal;font-weight:normal;font-stretch:normal;font-size:medium;line-height:1.25;font-family:'Noto Sans';-inkscape-font-specification:'Noto Sans';letter-spacing:0px;word-spacing:0px;fill:#000000;fill-opacity:1;stroke:none;stroke-width:0.26458332"
         id="path8376"
         inkscape:connector-curvature="0" />
      <path
         d="m 115.21258,-528.89584 q -1.2764,0 -2.00504,-0.76998 -0.72347,-0.77515 -0.72347,-2.12907 0,-1.36426 0.67696,-2.17041 0.67696,-0.81132 1.82934,-0.81132 1.06971,0 1.70533,0.69247 0.63562,0.68729 0.63562,1.86551 v 0.56328 h -3.88607 q 0.0258,0.96635 0.49093,1.46761 0.46508,0.50126 1.31774,0.50126 0.45476,0 0.863,-0.0775 0.40824,-0.0827 0.95601,-0.31523 v 0.81649 q -0.47025,0.20153 -0.88366,0.28422 -0.41341,0.0827 -0.97669,0.0827 z m -0.23254,-5.12113 q -0.66663,0 -1.0542,0.42891 -0.38757,0.42891 -0.45992,1.19372 h 2.88871 q -0.0103,-0.79581 -0.3669,-1.20922 -0.35657,-0.41341 -1.00769,-0.41341 z"
         style="font-style:normal;font-variant:normal;font-weight:normal;font-stretch:normal;font-size:medium;line-height:1.25;font-family:'Noto Sans';-inkscape-font-specification:'Noto Sans';letter-spacing:0px;word-spacing:0px;fill:#000000;fill-opacity:1;stroke:none;stroke-width:0.26458332"
         id="path8378"
         inkscape:connector-curvature="0" />
      <path
         d="m 122.63849,-528.99919 v -3.62769 q 0,-0.69246 -0.31006,-1.02836 -0.30489,-0.34106 -0.96118,-0.34106 -0.87333,0 -1.27124,0.48575 -0.39274,0.48059 -0.39274,1.57097 v 2.94039 h -0.93018 v -5.67408 h 0.74931 l 0.13953,0.77515 h 0.0517 q 0.26355,-0.41858 0.73897,-0.64595 0.47543,-0.23255 1.04904,-0.23255 1.04386,0 1.55029,0.50643 0.50643,0.50643 0.50643,1.57613 v 3.69487 z"
         style="font-style:normal;font-variant:normal;font-weight:normal;font-stretch:normal;font-size:medium;line-height:1.25;font-family:'Noto Sans';-inkscape-font-specification:'Noto Sans';letter-spacing:0px;word-spacing:0px;fill:#000000;fill-opacity:1;stroke:none;stroke-width:0.26458332"
         id="path8380"
         inkscape:connector-curvature="0" />
      <g
         inkscape:export-ydpi="152.12991"
         inkscape:export-xdpi="152.12991"
         inkscape:export-filename="/home/eud/hm-P.png"
         style="stroke-width:4"
         transform="matrix(0.25,0,0,0.25,57.449029,-328.61132)"
         id="g8930">
        <path
           style="stroke-width:1.05833328"
           inkscape:connector-curvature="0"
           d="M 105.74518,-503.78994 H 70.936602 c -9.70915,0 -17.663583,7.45702 -18.4785,16.9545 l -0.08043,46.80162 c 0,3.17923 2.575983,5.75522 5.755216,5.75522 h 0.556684 c 3.179233,0 5.755216,-2.57599 5.755216,-5.75522 v -45.19507 h 4.191 v 50.53965 h 0.1778 v 57.70245 c 0,4.29683 3.484033,7.78087 7.780867,7.78087 4.296833,0 7.780866,-3.48404 7.780866,-7.78087 v -57.70245 h 8.111066 v 57.70245 c 0,4.29683 3.484034,7.78087 7.780863,7.78087 4.29683,0 7.78087,-3.48404 7.78087,-7.78087 v -57.70245 -4.16136 -46.37829 h 4.191 v 45.19719 c 0,3.17923 2.57598,5.75521 5.75521,5.75521 h 0.55669 c 3.17923,0 5.75521,-2.57598 5.75521,-5.75521 l -0.0804,-46.80162 c -0.81703,-9.4996 -8.77147,-16.95662 -18.48062,-16.95662 z"
           id="path8877" />
        <circle
           style="opacity:1;fill:#000000;fill-opacity:1;fill-rule:nonzero;stroke:none;stroke-width:11.46399975;stroke-linecap:butt;stroke-linejoin:miter;stroke-miterlimit:4;stroke-dasharray:none;stroke-opacity:1;paint-order:fill markers stroke"
           id="path8907"
           cx="88.34301"
           cy="-524.30151"
           r="15.874" />
        <text
           xml:space="preserve"
           style="font-style:normal;font-variant:normal;font-weight:normal;font-stretch:normal;font-size:84.66666412px;line-height:1.25;font-family:'Noto Sans';-inkscape-font-specification:'Noto Sans';letter-spacing:0px;word-spacing:0px;fill:#ffffff;fill-opacity:1;stroke:none;stroke-width:1.05833328"
           x="69.807175"
           y="-443.10184"
           id="text8911"><tspan
             sodipodi:role="line"
             id="tspan8909"
             x="69.807175"
             y="-443.10184"
             style="font-style:normal;font-variant:normal;font-weight:normal;font-stretch:normal;font-family:'Sports Jersey';-inkscape-font-specification:'Sports Jersey';fill:#ffffff;stroke-width:1.05833328">H</tspan></text>
      </g>
      <g
         inkscape:export-ydpi="152.12991"
         inkscape:export-xdpi="152.12991"
         inkscape:export-filename="/home/eud/wm-P.png"
         style="stroke-width:4"
         transform="matrix(0.25,0,0,0.25,-41.813352,-347.1849)"
         id="g8937">
        <g
           style="stroke-width:4"
           id="g8922"
           transform="translate(0,45.60468)">
          <path
             style="stroke-width:1.05833328"
             inkscape:connector-curvature="0"
             d="m -14.159267,-549.39462 h -34.808578 c -9.70915,0 -17.663583,7.45702 -18.4785,16.9545 l -0.08043,46.80162 c 0,3.17923 2.575983,5.75522 5.755216,5.75522 h 0.556684 c 3.179233,0 5.755216,-2.57599 5.755216,-5.75522 v -45.19507 h 4.191 v 50.53965 h 0.1778 v 57.70245 c 0,4.29683 3.484033,7.78087 7.780867,7.78087 4.296833,0 7.780866,-3.48404 7.780866,-7.78087 v -57.70245 h 8.111066 v 57.70245 c 0,4.29683 3.484034,7.78087 7.780863,7.78087 4.29683,0 7.78087,-3.48404 7.78087,-7.78087 v -57.70245 -4.16136 -46.37829 h 4.1910002 v 45.19719 c 0,3.17923 2.57598,5.75521 5.75521,5.75521 h 0.55669 c 3.17923,0 5.75521,-2.57598 5.75521,-5.75521 l -0.0804,-46.80162 c -0.81703,-9.4996 -8.77147,-16.95662 -18.4806202,-16.95662 z"
             id="path8913" />
          <text
             xml:space="preserve"
             style="font-style:normal;font-variant:normal;font-weight:normal;font-stretch:normal;font-size:84.66666412px;line-height:1.25;font-family:'Noto Sans';-inkscape-font-specification:'Noto Sans';letter-spacing:0px;word-spacing:0px;fill:#ffffff;fill-opacity:1;stroke:none;stroke-width:1.05833328"
             x="-50.097271"
             y="-488.70651"
             id="text8917"><tspan
               sodipodi:role="line"
               id="tspan8915"
               x="-50.097271"
               y="-488.70651"
               style="font-style:normal;font-variant:normal;font-weight:normal;font-stretch:normal;font-family:'Sports Jersey';-inkscape-font-specification:'Sports Jersey';fill:#ffffff;stroke-width:1.05833328">W</tspan></text>
        </g>
        <circle
           r="15.874"
           cy="-524.30151"
           cx="-31.562496"
           id="circle8924"
           style="opacity:1;fill:#000000;fill-opacity:1;fill-rule:nonzero;stroke:none;stroke-width:11.46399975;stroke-linecap:butt;stroke-linejoin:miter;stroke-miterlimit:4;stroke-dasharray:none;stroke-opacity:1;paint-order:fill markers stroke" />
      </g>
      <circle
         inkscape:export-ydpi="140.50844"
         inkscape:export-xdpi="140.50844"
         inkscape:export-filename="/home/eud/hm-Rto.png"
         style="opacity:1;fill:#ff6600;fill-opacity:1;fill-rule:nonzero;stroke:none;stroke-width:2.86599994;stroke-linecap:butt;stroke-linejoin:miter;stroke-miterlimit:4;stroke-dasharray:none;stroke-opacity:1;paint-order:fill markers stroke"
         id="circle8943"
         cx="90.586929"
         cy="-496.36465"
         r="23.138824" />
      <g
         id="g8953"
         transform="matrix(0.25,0,0,0.25,68.501439,-382.69199)"
         style="stroke-width:4"
         inkscape:export-filename="/home/eud/hm-P.png"
         inkscape:export-xdpi="152.12991"
         inkscape:export-ydpi="152.12991">
        <path
           id="path8945"
           d="M 105.74518,-503.78994 H 70.936602 c -9.70915,0 -17.663583,7.45702 -18.4785,16.9545 l -0.08043,46.80162 c 0,3.17923 2.575983,5.75522 5.755216,5.75522 h 0.556684 c 3.179233,0 5.755216,-2.57599 5.755216,-5.75522 v -45.19507 h 4.191 v 50.53965 h 0.1778 v 57.70245 c 0,4.29683 3.484033,7.78087 7.780867,7.78087 4.296833,0 7.780866,-3.48404 7.780866,-7.78087 v -57.70245 h 8.111066 v 57.70245 c 0,4.29683 3.484034,7.78087 7.780863,7.78087 4.29683,0 7.78087,-3.48404 7.78087,-7.78087 v -57.70245 -4.16136 -46.37829 h 4.191 v 45.19719 c 0,3.17923 2.57598,5.75521 5.75521,5.75521 h 0.55669 c 3.17923,0 5.75521,-2.57598 5.75521,-5.75521 l -0.0804,-46.80162 c -0.81703,-9.4996 -8.77147,-16.95662 -18.48062,-16.95662 z"
           inkscape:connector-curvature="0"
           style="stroke-width:1.05833328" />
        <circle
           r="15.874"
           cy="-524.30151"
           cx="88.34301"
           id="circle8947"
           style="opacity:1;fill:#000000;fill-opacity:1;fill-rule:nonzero;stroke:none;stroke-width:11.46399975;stroke-linecap:butt;stroke-linejoin:miter;stroke-miterlimit:4;stroke-dasharray:none;stroke-opacity:1;paint-order:fill markers stroke" />
        <text
           id="text8951"
           y="-443.10184"
           x="69.807175"
           style="font-style:normal;font-variant:normal;font-weight:normal;font-stretch:normal;font-size:84.66666412px;line-height:1.25;font-family:'Noto Sans';-inkscape-font-specification:'Noto Sans';letter-spacing:0px;word-spacing:0px;fill:#ffffff;fill-opacity:1;stroke:none;stroke-width:1.05833328"
           xml:space="preserve"><tspan
             style="font-style:normal;font-variant:normal;font-weight:normal;font-stretch:normal;font-family:'Sports Jersey';-inkscape-font-specification:'Sports Jersey';fill:#ffffff;stroke-width:1.05833328"
             y="-443.10184"
             x="69.807175"
             id="tspan8949"
             sodipodi:role="line">H</tspan></text>
      </g>
    </g>
  </g>
  <style
     id="style9228"
     type="text/css">
	.st0{fill:none;stroke:#000000;stroke-width:3;stroke-miterlimit:10;}
</style>
  <style
     id="style9253"
     type="text/css">
	.st0{fill-rule:evenodd;clip-rule:evenodd;}
	.st1{fill:none;stroke:#000000;stroke-miterlimit:10;}
	.st2{fill:none;stroke:#000000;stroke-width:3;stroke-miterlimit:10;}
</style>
</svg>
